<svg width="350" height="47" viewBox="0 0 350 47" fill="none" xmlns="http://www.w3.org/2000/svg">
<path d="M46.12 10.415H52.07L57.565 26.585L56.76 26.235L61.555 14.3L63.9 21.265L56.48 37.19L46.12 10.415ZM59.035 10.415H64.075L70.41 26.06L69.5 25.92L74.225 10.415H79.685L69.745 37.12L59.035 10.415ZM79.4698 36L91.0898 9.225H91.3698L102.99 36H97.1098L89.6898 17.17L93.3648 14.65L84.4748 36H79.4698ZM87.4148 26.69H95.1498L96.9348 30.96H85.8398L87.4148 26.69ZM116.3 10.24C117.91 10.24 119.345 10.45 120.605 10.87C121.865 11.2667 122.915 11.85 123.755 12.62C124.618 13.3667 125.272 14.2767 125.715 15.35C126.158 16.4 126.38 17.59 126.38 18.92C126.38 19.97 126.217 21.02 125.89 22.07C125.587 23.12 125.073 24.0767 124.35 24.94C123.65 25.8033 122.717 26.5033 121.55 27.04C120.383 27.5533 118.937 27.81 117.21 27.81H113.57V36H108.495V10.24H116.3ZM117.175 22.91C117.945 22.91 118.587 22.7817 119.1 22.525C119.613 22.2683 120.01 21.9417 120.29 21.545C120.593 21.1483 120.803 20.74 120.92 20.32C121.06 19.8767 121.13 19.4683 121.13 19.095C121.13 18.815 121.083 18.465 120.99 18.045C120.92 17.6017 120.757 17.1583 120.5 16.715C120.243 16.2717 119.847 15.8983 119.31 15.595C118.797 15.2917 118.097 15.14 117.21 15.14H113.57V22.91H117.175ZM121.935 26.06L128.305 36H122.39L115.88 26.2L121.935 26.06ZM134.239 10.24H151.809V15.14H139.314V20.635H150.374V25.535H139.314V31.1H152.299V36H134.239V10.24Z" fill="black"/>
<rect x="163" width="187" height="47" fill="#1D47DC"/>
<path d="M193.41 33.17C193.17 33.37 192.72 33.64 192.06 33.98C191.42 34.32 190.63 34.62 189.69 34.88C188.75 35.14 187.71 35.26 186.57 35.24C184.83 35.2 183.27 34.89 181.89 34.31C180.53 33.71 179.37 32.9 178.41 31.88C177.47 30.86 176.75 29.69 176.25 28.37C175.75 27.05 175.5 25.64 175.5 24.14C175.5 22.46 175.75 20.92 176.25 19.52C176.77 18.12 177.5 16.91 178.44 15.89C179.4 14.87 180.54 14.08 181.86 13.52C183.18 12.96 184.64 12.68 186.24 12.68C187.72 12.68 189.03 12.88 190.17 13.28C191.31 13.68 192.24 14.11 192.96 14.57L191.25 18.68C190.75 18.3 190.08 17.91 189.24 17.51C188.42 17.09 187.47 16.88 186.39 16.88C185.55 16.88 184.74 17.06 183.96 17.42C183.2 17.76 182.52 18.25 181.92 18.89C181.34 19.53 180.88 20.28 180.54 21.14C180.2 21.98 180.03 22.9 180.03 23.9C180.03 24.96 180.18 25.93 180.48 26.81C180.8 27.69 181.25 28.45 181.83 29.09C182.41 29.71 183.1 30.19 183.9 30.53C184.72 30.87 185.64 31.04 186.66 31.04C187.84 31.04 188.85 30.85 189.69 30.47C190.53 30.09 191.17 29.69 191.61 29.27L193.41 33.17ZM197.918 23.99C197.918 22.47 198.208 21.03 198.788 19.67C199.368 18.31 200.168 17.11 201.188 16.07C202.228 15.01 203.428 14.18 204.788 13.58C206.148 12.98 207.608 12.68 209.168 12.68C210.708 12.68 212.158 12.98 213.518 13.58C214.878 14.18 216.078 15.01 217.118 16.07C218.178 17.11 218.998 18.31 219.578 19.67C220.178 21.03 220.478 22.47 220.478 23.99C220.478 25.55 220.178 27.01 219.578 28.37C218.998 29.73 218.178 30.93 217.118 31.97C216.078 32.99 214.878 33.79 213.518 34.37C212.158 34.95 210.708 35.24 209.168 35.24C207.608 35.24 206.148 34.95 204.788 34.37C203.428 33.79 202.228 32.99 201.188 31.97C200.168 30.93 199.368 29.73 198.788 28.37C198.208 27.01 197.918 25.55 197.918 23.99ZM202.418 23.99C202.418 24.97 202.588 25.89 202.928 26.75C203.288 27.59 203.778 28.34 204.398 29C205.038 29.64 205.768 30.14 206.588 30.5C207.428 30.86 208.338 31.04 209.318 31.04C210.258 31.04 211.128 30.86 211.928 30.5C212.748 30.14 213.458 29.64 214.058 29C214.658 28.34 215.128 27.59 215.468 26.75C215.808 25.89 215.978 24.97 215.978 23.99C215.978 22.99 215.798 22.06 215.438 21.2C215.098 20.34 214.618 19.59 213.998 18.95C213.398 18.29 212.688 17.78 211.868 17.42C211.048 17.06 210.158 16.88 209.198 16.88C208.238 16.88 207.348 17.06 206.528 17.42C205.708 17.78 204.988 18.29 204.368 18.95C203.748 19.59 203.268 20.34 202.928 21.2C202.588 22.06 202.418 22.99 202.418 23.99ZM246.085 35.9L229.345 20.78L230.635 21.5L230.725 35H226.315V12.05H226.495L242.875 27.11L241.915 26.69L241.825 12.92H246.205V35.9H246.085ZM251.891 12.92H266.771V17.12H261.401V35H257.051V17.12H251.891V12.92ZM279.159 12.92C280.539 12.92 281.769 13.1 282.849 13.46C283.929 13.8 284.829 14.3 285.549 14.96C286.289 15.6 286.849 16.38 287.229 17.3C287.609 18.2 287.799 19.22 287.799 20.36C287.799 21.26 287.659 22.16 287.379 23.06C287.119 23.96 286.679 24.78 286.059 25.52C285.459 26.26 284.659 26.86 283.659 27.32C282.659 27.76 281.419 27.98 279.939 27.98H276.819V35H272.469V12.92H279.159ZM279.909 23.78C280.569 23.78 281.119 23.67 281.559 23.45C281.999 23.23 282.339 22.95 282.579 22.61C282.839 22.27 283.019 21.92 283.119 21.56C283.239 21.18 283.299 20.83 283.299 20.51C283.299 20.27 283.259 19.97 283.179 19.61C283.119 19.23 282.979 18.85 282.759 18.47C282.539 18.09 282.199 17.77 281.739 17.51C281.299 17.25 280.699 17.12 279.939 17.12H276.819V23.78H279.909ZM283.989 26.48L289.449 35H284.379L278.799 26.6L283.989 26.48ZM292.424 23.99C292.424 22.47 292.714 21.03 293.294 19.67C293.874 18.31 294.674 17.11 295.694 16.07C296.734 15.01 297.934 14.18 299.294 13.58C300.654 12.98 302.114 12.68 303.674 12.68C305.214 12.68 306.664 12.98 308.024 13.58C309.384 14.18 310.584 15.01 311.624 16.07C312.684 17.11 313.504 18.31 314.084 19.67C314.684 21.03 314.984 22.47 314.984 23.99C314.984 25.55 314.684 27.01 314.084 28.37C313.504 29.73 312.684 30.93 311.624 31.97C310.584 32.99 309.384 33.79 308.024 34.37C306.664 34.95 305.214 35.24 303.674 35.24C302.114 35.24 300.654 34.95 299.294 34.37C297.934 33.79 296.734 32.99 295.694 31.97C294.674 30.93 293.874 29.73 293.294 28.37C292.714 27.01 292.424 25.55 292.424 23.99ZM296.924 23.99C296.924 24.97 297.094 25.89 297.434 26.75C297.794 27.59 298.284 28.34 298.904 29C299.544 29.64 300.274 30.14 301.094 30.5C301.934 30.86 302.844 31.04 303.824 31.04C304.764 31.04 305.634 30.86 306.434 30.5C307.254 30.14 307.964 29.64 308.564 29C309.164 28.34 309.634 27.59 309.974 26.75C310.314 25.89 310.484 24.97 310.484 23.99C310.484 22.99 310.304 22.06 309.944 21.2C309.604 20.34 309.124 19.59 308.504 18.95C307.904 18.29 307.194 17.78 306.374 17.42C305.554 17.06 304.664 16.88 303.704 16.88C302.744 16.88 301.854 17.06 301.034 17.42C300.214 17.78 299.494 18.29 298.874 18.95C298.254 19.59 297.774 20.34 297.434 21.2C297.094 22.06 296.924 22.99 296.924 23.99ZM320.821 12.92H325.171V30.8H335.551V35H320.821V12.92Z" fill="white"/>
<path d="M5.71408 18.1822V33.9519L20 39.6672L34.2859 33.9519V18.1822H5.71408Z" fill="#0042AC"/>
<path d="M20 39.6672L34.2859 33.9519V18.1822H20V39.6672Z" fill="#1D47DC"/>
<path d="M25.7141 6.40427L20 9.35717L14.2858 6.40427L0 13.7858L5.71409 16.7376L0 19.6905L14.2858 27.0702L20 24.1192L25.7141 27.0702L40 19.6905L34.2859 16.7376L40 13.7858L25.7141 6.40427Z" fill="#2051FF"/>
<path d="M20 9.28568L5.71408 16.6661L20 24.0477L34.2859 16.6661L20 9.28568Z" fill="#003893"/>
</svg>
