<svg width="199" height="50" viewBox="0 0 199 50" fill="none" xmlns="http://www.w3.org/2000/svg">
<path d="M1.12 12.415H7.07L12.565 28.585L11.76 28.235L16.555 16.3L18.9 23.265L11.48 39.19L1.12 12.415ZM14.035 12.415H19.075L25.41 28.06L24.5 27.92L29.225 12.415H34.685L24.745 39.12L14.035 12.415ZM34.4698 38L46.0898 11.225H46.3698L57.9898 38H52.1098L44.6898 19.17L48.3648 16.65L39.4748 38H34.4698ZM42.4148 28.69H50.1498L51.9348 32.96H40.8398L42.4148 28.69ZM71.2999 12.24C72.9099 12.24 74.3449 12.45 75.6049 12.87C76.8649 13.2667 77.9149 13.85 78.7549 14.62C79.6183 15.3667 80.2716 16.2767 80.7149 17.35C81.1583 18.4 81.3799 19.59 81.3799 20.92C81.3799 21.97 81.2166 23.02 80.8899 24.07C80.5866 25.12 80.0733 26.0767 79.3499 26.94C78.6499 27.8033 77.7166 28.5033 76.5499 29.04C75.3833 29.5533 73.9366 29.81 72.2099 29.81H68.5699V38H63.4949V12.24H71.2999ZM72.1749 24.91C72.9449 24.91 73.5866 24.7817 74.0999 24.525C74.6133 24.2683 75.0099 23.9417 75.2899 23.545C75.5933 23.1483 75.8033 22.74 75.9199 22.32C76.0599 21.8767 76.1299 21.4683 76.1299 21.095C76.1299 20.815 76.0833 20.465 75.9899 20.045C75.9199 19.6017 75.7566 19.1583 75.4999 18.715C75.2433 18.2717 74.8466 17.8983 74.3099 17.595C73.7966 17.2917 73.0966 17.14 72.2099 17.14H68.5699V24.91H72.1749ZM76.9349 28.06L83.3049 38H77.3899L70.8799 28.2L76.9349 28.06ZM89.2391 12.24H106.809V17.14H94.3141V22.635H105.374V27.535H94.3141V33.1H107.299V38H89.2391V12.24Z" fill="black"/>
<rect x="118" width="81" height="50" fill="#1D47DC"/>
<path d="M139.312 21.902C139.168 22.022 138.898 22.184 138.502 22.388C138.118 22.592 137.644 22.772 137.08 22.928C136.516 23.084 135.892 23.156 135.208 23.144C134.164 23.12 133.228 22.934 132.4 22.586C131.584 22.226 130.888 21.74 130.312 21.128C129.748 20.516 129.316 19.814 129.016 19.022C128.716 18.23 128.566 17.384 128.566 16.484C128.566 15.476 128.716 14.552 129.016 13.712C129.328 12.872 129.766 12.146 130.33 11.534C130.906 10.922 131.59 10.448 132.382 10.112C133.174 9.776 134.05 9.608 135.01 9.608C135.898 9.608 136.684 9.728 137.368 9.968C138.052 10.208 138.61 10.466 139.042 10.742L138.016 13.208C137.716 12.98 137.314 12.746 136.81 12.506C136.318 12.254 135.748 12.128 135.1 12.128C134.596 12.128 134.11 12.236 133.642 12.452C133.186 12.656 132.778 12.95 132.418 13.334C132.07 13.718 131.794 14.168 131.59 14.684C131.386 15.188 131.284 15.74 131.284 16.34C131.284 16.976 131.374 17.558 131.554 18.086C131.746 18.614 132.016 19.07 132.364 19.454C132.712 19.826 133.126 20.114 133.606 20.318C134.098 20.522 134.65 20.624 135.262 20.624C135.97 20.624 136.576 20.51 137.08 20.282C137.584 20.054 137.968 19.814 138.232 19.562L139.312 21.902ZM142.017 16.394C142.017 15.482 142.191 14.618 142.539 13.802C142.887 12.986 143.367 12.266 143.979 11.642C144.603 11.006 145.323 10.508 146.139 10.148C146.955 9.788 147.831 9.608 148.767 9.608C149.691 9.608 150.561 9.788 151.377 10.148C152.193 10.508 152.913 11.006 153.537 11.642C154.173 12.266 154.665 12.986 155.013 13.802C155.373 14.618 155.553 15.482 155.553 16.394C155.553 17.33 155.373 18.206 155.013 19.022C154.665 19.838 154.173 20.558 153.537 21.182C152.913 21.794 152.193 22.274 151.377 22.622C150.561 22.97 149.691 23.144 148.767 23.144C147.831 23.144 146.955 22.97 146.139 22.622C145.323 22.274 144.603 21.794 143.979 21.182C143.367 20.558 142.887 19.838 142.539 19.022C142.191 18.206 142.017 17.33 142.017 16.394ZM144.717 16.394C144.717 16.982 144.819 17.534 145.023 18.05C145.239 18.554 145.533 19.004 145.905 19.4C146.289 19.784 146.727 20.084 147.219 20.3C147.723 20.516 148.269 20.624 148.857 20.624C149.421 20.624 149.943 20.516 150.423 20.3C150.915 20.084 151.341 19.784 151.701 19.4C152.061 19.004 152.343 18.554 152.547 18.05C152.751 17.534 152.853 16.982 152.853 16.394C152.853 15.794 152.745 15.236 152.529 14.72C152.325 14.204 152.037 13.754 151.665 13.37C151.305 12.974 150.879 12.668 150.387 12.452C149.895 12.236 149.361 12.128 148.785 12.128C148.209 12.128 147.675 12.236 147.183 12.452C146.691 12.668 146.259 12.974 145.887 13.37C145.515 13.754 145.227 14.204 145.023 14.72C144.819 15.236 144.717 15.794 144.717 16.394ZM170.917 23.54L160.873 14.468L161.647 14.9L161.701 23H159.055V9.23H159.163L168.991 18.266L168.415 18.014L168.361 9.752H170.989V23.54H170.917ZM174.401 9.752H183.329V12.272H180.107V23H177.497V12.272H174.401V9.752ZM133.39 27.752C134.218 27.752 134.956 27.86 135.604 28.076C136.252 28.28 136.792 28.58 137.224 28.976C137.668 29.36 138.004 29.828 138.232 30.38C138.46 30.92 138.574 31.532 138.574 32.216C138.574 32.756 138.49 33.296 138.322 33.836C138.166 34.376 137.902 34.868 137.53 35.312C137.17 35.756 136.69 36.116 136.09 36.392C135.49 36.656 134.746 36.788 133.858 36.788H131.986V41H129.376V27.752H133.39ZM133.84 34.268C134.236 34.268 134.566 34.202 134.83 34.07C135.094 33.938 135.298 33.77 135.442 33.566C135.598 33.362 135.706 33.152 135.766 32.936C135.838 32.708 135.874 32.498 135.874 32.306C135.874 32.162 135.85 31.982 135.802 31.766C135.766 31.538 135.682 31.31 135.55 31.082C135.418 30.854 135.214 30.662 134.938 30.506C134.674 30.35 134.314 30.272 133.858 30.272H131.986V34.268H133.84ZM136.288 35.888L139.564 41H136.522L133.174 35.96L136.288 35.888ZM141.349 34.394C141.349 33.482 141.523 32.618 141.871 31.802C142.219 30.986 142.699 30.266 143.311 29.642C143.935 29.006 144.655 28.508 145.471 28.148C146.287 27.788 147.163 27.608 148.099 27.608C149.023 27.608 149.893 27.788 150.709 28.148C151.525 28.508 152.245 29.006 152.869 29.642C153.505 30.266 153.997 30.986 154.345 31.802C154.705 32.618 154.885 33.482 154.885 34.394C154.885 35.33 154.705 36.206 154.345 37.022C153.997 37.838 153.505 38.558 152.869 39.182C152.245 39.794 151.525 40.274 150.709 40.622C149.893 40.97 149.023 41.144 148.099 41.144C147.163 41.144 146.287 40.97 145.471 40.622C144.655 40.274 143.935 39.794 143.311 39.182C142.699 38.558 142.219 37.838 141.871 37.022C141.523 36.206 141.349 35.33 141.349 34.394ZM144.049 34.394C144.049 34.982 144.151 35.534 144.355 36.05C144.571 36.554 144.865 37.004 145.237 37.4C145.621 37.784 146.059 38.084 146.551 38.3C147.055 38.516 147.601 38.624 148.189 38.624C148.753 38.624 149.275 38.516 149.755 38.3C150.247 38.084 150.673 37.784 151.033 37.4C151.393 37.004 151.675 36.554 151.879 36.05C152.083 35.534 152.185 34.982 152.185 34.394C152.185 33.794 152.077 33.236 151.861 32.72C151.657 32.204 151.369 31.754 150.997 31.37C150.637 30.974 150.211 30.668 149.719 30.452C149.227 30.236 148.693 30.128 148.117 30.128C147.541 30.128 147.007 30.236 146.515 30.452C146.023 30.668 145.591 30.974 145.219 31.37C144.847 31.754 144.559 32.204 144.355 32.72C144.151 33.236 144.049 33.794 144.049 34.394ZM158.387 27.752H160.997V38.48H167.225V41H158.387V27.752Z" fill="white"/>
</svg>
