<svg width="246" height="50" viewBox="0 0 246 50" fill="none" xmlns="http://www.w3.org/2000/svg">
<path d="M48.12 12.415H54.07L59.565 28.585L58.76 28.235L63.555 16.3L65.9 23.265L58.48 39.19L48.12 12.415ZM61.035 12.415H66.075L72.41 28.06L71.5 27.92L76.225 12.415H81.685L71.745 39.12L61.035 12.415ZM81.4698 38L93.0898 11.225H93.3698L104.99 38H99.1098L91.6898 19.17L95.3648 16.65L86.4748 38H81.4698ZM89.4148 28.69H97.1498L98.9348 32.96H87.8398L89.4148 28.69ZM118.3 12.24C119.91 12.24 121.345 12.45 122.605 12.87C123.865 13.2667 124.915 13.85 125.755 14.62C126.618 15.3667 127.272 16.2767 127.715 17.35C128.158 18.4 128.38 19.59 128.38 20.92C128.38 21.97 128.217 23.02 127.89 24.07C127.587 25.12 127.073 26.0767 126.35 26.94C125.65 27.8033 124.717 28.5033 123.55 29.04C122.383 29.5533 120.937 29.81 119.21 29.81H115.57V38H110.495V12.24H118.3ZM119.175 24.91C119.945 24.91 120.587 24.7817 121.1 24.525C121.613 24.2683 122.01 23.9417 122.29 23.545C122.593 23.1483 122.803 22.74 122.92 22.32C123.06 21.8767 123.13 21.4683 123.13 21.095C123.13 20.815 123.083 20.465 122.99 20.045C122.92 19.6017 122.757 19.1583 122.5 18.715C122.243 18.2717 121.847 17.8983 121.31 17.595C120.797 17.2917 120.097 17.14 119.21 17.14H115.57V24.91H119.175ZM123.935 28.06L130.305 38H124.39L117.88 28.2L123.935 28.06ZM136.239 12.24H153.809V17.14H141.314V22.635H152.374V27.535H141.314V33.1H154.299V38H136.239V12.24Z" fill="black"/>
<rect x="165" width="81" height="50" fill="#1D47DC"/>
<path d="M186.312 21.902C186.168 22.022 185.898 22.184 185.502 22.388C185.118 22.592 184.644 22.772 184.08 22.928C183.516 23.084 182.892 23.156 182.208 23.144C181.164 23.12 180.228 22.934 179.4 22.586C178.584 22.226 177.888 21.74 177.312 21.128C176.748 20.516 176.316 19.814 176.016 19.022C175.716 18.23 175.566 17.384 175.566 16.484C175.566 15.476 175.716 14.552 176.016 13.712C176.328 12.872 176.766 12.146 177.33 11.534C177.906 10.922 178.59 10.448 179.382 10.112C180.174 9.776 181.05 9.608 182.01 9.608C182.898 9.608 183.684 9.728 184.368 9.968C185.052 10.208 185.61 10.466 186.042 10.742L185.016 13.208C184.716 12.98 184.314 12.746 183.81 12.506C183.318 12.254 182.748 12.128 182.1 12.128C181.596 12.128 181.11 12.236 180.642 12.452C180.186 12.656 179.778 12.95 179.418 13.334C179.07 13.718 178.794 14.168 178.59 14.684C178.386 15.188 178.284 15.74 178.284 16.34C178.284 16.976 178.374 17.558 178.554 18.086C178.746 18.614 179.016 19.07 179.364 19.454C179.712 19.826 180.126 20.114 180.606 20.318C181.098 20.522 181.65 20.624 182.262 20.624C182.97 20.624 183.576 20.51 184.08 20.282C184.584 20.054 184.968 19.814 185.232 19.562L186.312 21.902ZM189.017 16.394C189.017 15.482 189.191 14.618 189.539 13.802C189.887 12.986 190.367 12.266 190.979 11.642C191.603 11.006 192.323 10.508 193.139 10.148C193.955 9.788 194.831 9.608 195.767 9.608C196.691 9.608 197.561 9.788 198.377 10.148C199.193 10.508 199.913 11.006 200.537 11.642C201.173 12.266 201.665 12.986 202.013 13.802C202.373 14.618 202.553 15.482 202.553 16.394C202.553 17.33 202.373 18.206 202.013 19.022C201.665 19.838 201.173 20.558 200.537 21.182C199.913 21.794 199.193 22.274 198.377 22.622C197.561 22.97 196.691 23.144 195.767 23.144C194.831 23.144 193.955 22.97 193.139 22.622C192.323 22.274 191.603 21.794 190.979 21.182C190.367 20.558 189.887 19.838 189.539 19.022C189.191 18.206 189.017 17.33 189.017 16.394ZM191.717 16.394C191.717 16.982 191.819 17.534 192.023 18.05C192.239 18.554 192.533 19.004 192.905 19.4C193.289 19.784 193.727 20.084 194.219 20.3C194.723 20.516 195.269 20.624 195.857 20.624C196.421 20.624 196.943 20.516 197.423 20.3C197.915 20.084 198.341 19.784 198.701 19.4C199.061 19.004 199.343 18.554 199.547 18.05C199.751 17.534 199.853 16.982 199.853 16.394C199.853 15.794 199.745 15.236 199.529 14.72C199.325 14.204 199.037 13.754 198.665 13.37C198.305 12.974 197.879 12.668 197.387 12.452C196.895 12.236 196.361 12.128 195.785 12.128C195.209 12.128 194.675 12.236 194.183 12.452C193.691 12.668 193.259 12.974 192.887 13.37C192.515 13.754 192.227 14.204 192.023 14.72C191.819 15.236 191.717 15.794 191.717 16.394ZM217.917 23.54L207.873 14.468L208.647 14.9L208.701 23H206.055V9.23H206.163L215.991 18.266L215.415 18.014L215.361 9.752H217.989V23.54H217.917ZM221.401 9.752H230.329V12.272H227.107V23H224.497V12.272H221.401V9.752ZM180.39 27.752C181.218 27.752 181.956 27.86 182.604 28.076C183.252 28.28 183.792 28.58 184.224 28.976C184.668 29.36 185.004 29.828 185.232 30.38C185.46 30.92 185.574 31.532 185.574 32.216C185.574 32.756 185.49 33.296 185.322 33.836C185.166 34.376 184.902 34.868 184.53 35.312C184.17 35.756 183.69 36.116 183.09 36.392C182.49 36.656 181.746 36.788 180.858 36.788H178.986V41H176.376V27.752H180.39ZM180.84 34.268C181.236 34.268 181.566 34.202 181.83 34.07C182.094 33.938 182.298 33.77 182.442 33.566C182.598 33.362 182.706 33.152 182.766 32.936C182.838 32.708 182.874 32.498 182.874 32.306C182.874 32.162 182.85 31.982 182.802 31.766C182.766 31.538 182.682 31.31 182.55 31.082C182.418 30.854 182.214 30.662 181.938 30.506C181.674 30.35 181.314 30.272 180.858 30.272H178.986V34.268H180.84ZM183.288 35.888L186.564 41H183.522L180.174 35.96L183.288 35.888ZM188.349 34.394C188.349 33.482 188.523 32.618 188.871 31.802C189.219 30.986 189.699 30.266 190.311 29.642C190.935 29.006 191.655 28.508 192.471 28.148C193.287 27.788 194.163 27.608 195.099 27.608C196.023 27.608 196.893 27.788 197.709 28.148C198.525 28.508 199.245 29.006 199.869 29.642C200.505 30.266 200.997 30.986 201.345 31.802C201.705 32.618 201.885 33.482 201.885 34.394C201.885 35.33 201.705 36.206 201.345 37.022C200.997 37.838 200.505 38.558 199.869 39.182C199.245 39.794 198.525 40.274 197.709 40.622C196.893 40.97 196.023 41.144 195.099 41.144C194.163 41.144 193.287 40.97 192.471 40.622C191.655 40.274 190.935 39.794 190.311 39.182C189.699 38.558 189.219 37.838 188.871 37.022C188.523 36.206 188.349 35.33 188.349 34.394ZM191.049 34.394C191.049 34.982 191.151 35.534 191.355 36.05C191.571 36.554 191.865 37.004 192.237 37.4C192.621 37.784 193.059 38.084 193.551 38.3C194.055 38.516 194.601 38.624 195.189 38.624C195.753 38.624 196.275 38.516 196.755 38.3C197.247 38.084 197.673 37.784 198.033 37.4C198.393 37.004 198.675 36.554 198.879 36.05C199.083 35.534 199.185 34.982 199.185 34.394C199.185 33.794 199.077 33.236 198.861 32.72C198.657 32.204 198.369 31.754 197.997 31.37C197.637 30.974 197.211 30.668 196.719 30.452C196.227 30.236 195.693 30.128 195.117 30.128C194.541 30.128 194.007 30.236 193.515 30.452C193.023 30.668 192.591 30.974 192.219 31.37C191.847 31.754 191.559 32.204 191.355 32.72C191.151 33.236 191.049 33.794 191.049 34.394ZM205.387 27.752H207.997V38.48H214.225V41H205.387V27.752Z" fill="white"/>
<path d="M5.71408 20.1822V35.9519L20 41.6672L34.2859 35.9519V20.1822H5.71408Z" fill="#0042AC"/>
<path d="M20 41.6672L34.2859 35.9519V20.1822H20V41.6672Z" fill="#1D47DC"/>
<path d="M25.7141 8.40425L20 11.3572L14.2858 8.40425L0 15.7858L5.71409 18.7375L0 21.6904L14.2858 29.0702L20 26.1192L25.7141 29.0702L40 21.6904L34.2859 18.7375L40 15.7858L25.7141 8.40425Z" fill="#2051FF"/>
<path d="M20 11.2857L5.71408 18.666L20 26.0477L34.2859 18.666L20 11.2857Z" fill="#003893"/>
</svg>
