<svg width="305" height="47" viewBox="0 0 305 47" fill="none" xmlns="http://www.w3.org/2000/svg">
<path d="M1.12 10.415H7.07L12.565 26.585L11.76 26.235L16.555 14.3L18.9 21.265L11.48 37.19L1.12 10.415ZM14.035 10.415H19.075L25.41 26.06L24.5 25.92L29.225 10.415H34.685L24.745 37.12L14.035 10.415ZM34.4698 36L46.0898 9.225H46.3698L57.9898 36H52.1098L44.6898 17.17L48.3648 14.65L39.4748 36H34.4698ZM42.4148 26.69H50.1498L51.9348 30.96H40.8398L42.4148 26.69ZM71.2999 10.24C72.9099 10.24 74.3449 10.45 75.6049 10.87C76.8649 11.2667 77.9149 11.85 78.7549 12.62C79.6183 13.3667 80.2716 14.2767 80.7149 15.35C81.1583 16.4 81.3799 17.59 81.3799 18.92C81.3799 19.97 81.2166 21.02 80.8899 22.07C80.5866 23.12 80.0733 24.0767 79.3499 24.94C78.6499 25.8033 77.7166 26.5033 76.5499 27.04C75.3833 27.5533 73.9366 27.81 72.2099 27.81H68.5699V36H63.4949V10.24H71.2999ZM72.1749 22.91C72.9449 22.91 73.5866 22.7817 74.0999 22.525C74.6133 22.2683 75.0099 21.9417 75.2899 21.545C75.5933 21.1483 75.8033 20.74 75.9199 20.32C76.0599 19.8767 76.1299 19.4683 76.1299 19.095C76.1299 18.815 76.0833 18.465 75.9899 18.045C75.9199 17.6017 75.7566 17.1583 75.4999 16.715C75.2433 16.2717 74.8466 15.8983 74.3099 15.595C73.7966 15.2917 73.0966 15.14 72.2099 15.14H68.5699V22.91H72.1749ZM76.9349 26.06L83.3049 36H77.3899L70.8799 26.2L76.9349 26.06ZM89.2391 10.24H106.809V15.14H94.3141V20.635H105.374V25.535H94.3141V31.1H107.299V36H89.2391V10.24Z" fill="black"/>
<rect x="118" width="187" height="47" fill="#1D47DC"/>
<path d="M148.41 33.17C148.17 33.37 147.72 33.64 147.06 33.98C146.42 34.32 145.63 34.62 144.69 34.88C143.75 35.14 142.71 35.26 141.57 35.24C139.83 35.2 138.27 34.89 136.89 34.31C135.53 33.71 134.37 32.9 133.41 31.88C132.47 30.86 131.75 29.69 131.25 28.37C130.75 27.05 130.5 25.64 130.5 24.14C130.5 22.46 130.75 20.92 131.25 19.52C131.77 18.12 132.5 16.91 133.44 15.89C134.4 14.87 135.54 14.08 136.86 13.52C138.18 12.96 139.64 12.68 141.24 12.68C142.72 12.68 144.03 12.88 145.17 13.28C146.31 13.68 147.24 14.11 147.96 14.57L146.25 18.68C145.75 18.3 145.08 17.91 144.24 17.51C143.42 17.09 142.47 16.88 141.39 16.88C140.55 16.88 139.74 17.06 138.96 17.42C138.2 17.76 137.52 18.25 136.92 18.89C136.34 19.53 135.88 20.28 135.54 21.14C135.2 21.98 135.03 22.9 135.03 23.9C135.03 24.96 135.18 25.93 135.48 26.81C135.8 27.69 136.25 28.45 136.83 29.09C137.41 29.71 138.1 30.19 138.9 30.53C139.72 30.87 140.64 31.04 141.66 31.04C142.84 31.04 143.85 30.85 144.69 30.47C145.53 30.09 146.17 29.69 146.61 29.27L148.41 33.17ZM152.918 23.99C152.918 22.47 153.208 21.03 153.788 19.67C154.368 18.31 155.168 17.11 156.188 16.07C157.228 15.01 158.428 14.18 159.788 13.58C161.148 12.98 162.608 12.68 164.168 12.68C165.708 12.68 167.158 12.98 168.518 13.58C169.878 14.18 171.078 15.01 172.118 16.07C173.178 17.11 173.998 18.31 174.578 19.67C175.178 21.03 175.478 22.47 175.478 23.99C175.478 25.55 175.178 27.01 174.578 28.37C173.998 29.73 173.178 30.93 172.118 31.97C171.078 32.99 169.878 33.79 168.518 34.37C167.158 34.95 165.708 35.24 164.168 35.24C162.608 35.24 161.148 34.95 159.788 34.37C158.428 33.79 157.228 32.99 156.188 31.97C155.168 30.93 154.368 29.73 153.788 28.37C153.208 27.01 152.918 25.55 152.918 23.99ZM157.418 23.99C157.418 24.97 157.588 25.89 157.928 26.75C158.288 27.59 158.778 28.34 159.398 29C160.038 29.64 160.768 30.14 161.588 30.5C162.428 30.86 163.338 31.04 164.318 31.04C165.258 31.04 166.128 30.86 166.928 30.5C167.748 30.14 168.458 29.64 169.058 29C169.658 28.34 170.128 27.59 170.468 26.75C170.808 25.89 170.978 24.97 170.978 23.99C170.978 22.99 170.798 22.06 170.438 21.2C170.098 20.34 169.618 19.59 168.998 18.95C168.398 18.29 167.688 17.78 166.868 17.42C166.048 17.06 165.158 16.88 164.198 16.88C163.238 16.88 162.348 17.06 161.528 17.42C160.708 17.78 159.988 18.29 159.368 18.95C158.748 19.59 158.268 20.34 157.928 21.2C157.588 22.06 157.418 22.99 157.418 23.99ZM201.085 35.9L184.345 20.78L185.635 21.5L185.725 35H181.315V12.05H181.495L197.875 27.11L196.915 26.69L196.825 12.92H201.205V35.9H201.085ZM206.891 12.92H221.771V17.12H216.401V35H212.051V17.12H206.891V12.92ZM234.159 12.92C235.539 12.92 236.769 13.1 237.849 13.46C238.929 13.8 239.829 14.3 240.549 14.96C241.289 15.6 241.849 16.38 242.229 17.3C242.609 18.2 242.799 19.22 242.799 20.36C242.799 21.26 242.659 22.16 242.379 23.06C242.119 23.96 241.679 24.78 241.059 25.52C240.459 26.26 239.659 26.86 238.659 27.32C237.659 27.76 236.419 27.98 234.939 27.98H231.819V35H227.469V12.92H234.159ZM234.909 23.78C235.569 23.78 236.119 23.67 236.559 23.45C236.999 23.23 237.339 22.95 237.579 22.61C237.839 22.27 238.019 21.92 238.119 21.56C238.239 21.18 238.299 20.83 238.299 20.51C238.299 20.27 238.259 19.97 238.179 19.61C238.119 19.23 237.979 18.85 237.759 18.47C237.539 18.09 237.199 17.77 236.739 17.51C236.299 17.25 235.699 17.12 234.939 17.12H231.819V23.78H234.909ZM238.989 26.48L244.449 35H239.379L233.799 26.6L238.989 26.48ZM247.424 23.99C247.424 22.47 247.714 21.03 248.294 19.67C248.874 18.31 249.674 17.11 250.694 16.07C251.734 15.01 252.934 14.18 254.294 13.58C255.654 12.98 257.114 12.68 258.674 12.68C260.214 12.68 261.664 12.98 263.024 13.58C264.384 14.18 265.584 15.01 266.624 16.07C267.684 17.11 268.504 18.31 269.084 19.67C269.684 21.03 269.984 22.47 269.984 23.99C269.984 25.55 269.684 27.01 269.084 28.37C268.504 29.73 267.684 30.93 266.624 31.97C265.584 32.99 264.384 33.79 263.024 34.37C261.664 34.95 260.214 35.24 258.674 35.24C257.114 35.24 255.654 34.95 254.294 34.37C252.934 33.79 251.734 32.99 250.694 31.97C249.674 30.93 248.874 29.73 248.294 28.37C247.714 27.01 247.424 25.55 247.424 23.99ZM251.924 23.99C251.924 24.97 252.094 25.89 252.434 26.75C252.794 27.59 253.284 28.34 253.904 29C254.544 29.64 255.274 30.14 256.094 30.5C256.934 30.86 257.844 31.04 258.824 31.04C259.764 31.04 260.634 30.86 261.434 30.5C262.254 30.14 262.964 29.64 263.564 29C264.164 28.34 264.634 27.59 264.974 26.75C265.314 25.89 265.484 24.97 265.484 23.99C265.484 22.99 265.304 22.06 264.944 21.2C264.604 20.34 264.124 19.59 263.504 18.95C262.904 18.29 262.194 17.78 261.374 17.42C260.554 17.06 259.664 16.88 258.704 16.88C257.744 16.88 256.854 17.06 256.034 17.42C255.214 17.78 254.494 18.29 253.874 18.95C253.254 19.59 252.774 20.34 252.434 21.2C252.094 22.06 251.924 22.99 251.924 23.99ZM275.821 12.92H280.171V30.8H290.551V35H275.821V12.92Z" fill="white"/>
</svg>
